# xmcd
#
# Track frame offsets:
#	150
#	10597
#	28698
#	46319
#	57563
#	70610
#	82411
#	102278
#	116268
#	127637
#	141146
#	174332
#
# Disc length: 2497 seconds
#
# Revision: 1
# Processed by: cddbd v1.5.1PL2 Copyright (c) Steve Scherf et al.
# Submitted via: CDRider 2.1
#
DISCID=9509bf0c
DTITLE=Second Attention - 12 Fluid Ounces
DYEAR=2004
DGENRE=Blues
TTITLE0=Inphegenia's Pyre
TTITLE1=Dream
TTITLE2=Away
TTITLE3=Dead Man Talking
TTITLE4=Peace of Mind
TTITLE5=Get Back in the Car
TTITLE6=Train Fever
TTITLE7=Way of the Gun
TTITLE8=Go
TTITLE9=Home Song
TTITLE10=Blood of an Angel
TTITLE11=It's Time to Go
EXTD=
EXTT0=
EXTT1=
EXTT2=
EXTT3=
EXTT4=
EXTT5=
EXTT6=
EXTT7=
EXTT8=
EXTT9=
EXTT10=
EXTT11=
PLAYORDER=
